<svg xmlns="http://www.w3.org/2000/svg" fill="none" viewBox="0 0 64 61.97">
<path d="M64 23.412L42.9673 21.9046L31.9989 0L20.9066 21.9044L0 23.412L14.0011 40.3223L9.99854 61.9707L31.9989 52.0062L53.9992 61.9689L49.9326 40.3204C49.9329 40.32 64 23.412 64 23.412Z" fill="#F4B459"/>
<path d="M53.9994 61.9707L49.9329 40.3202L63.9879 23.426V23.41L42.9673 21.9044L31.9989 0V52.006L53.9994 61.9707Z" fill="#E3A753"/>
<path d="M35.0938 37.3594H38.25V39.7188H35.0938V45H32.1875V39.7188H21.8281V38.0156L32.0156 22.25H35.0938V37.3594ZM25.1094 37.3594H32.1875V26.2031L31.8438 26.8281L25.1094 37.3594Z" fill="#8F4068"/>
</svg>