<svg xmlns="http://www.w3.org/2000/svg" fill="none" viewBox="0 0 64 61.97">
<path d="M64 23.412L42.9673 21.9046L31.9989 0L20.9066 21.9044L0 23.412L14.0011 40.3223L9.99854 61.9707L31.9989 52.0062L53.9992 61.9689L49.9326 40.3204C49.9329 40.32 64 23.412 64 23.412Z" fill="#F4B459"/>
<path d="M53.9994 61.9707L49.9329 40.3202L63.9879 23.426V23.41L42.9673 21.9044L31.9989 0V52.006L53.9994 61.9707Z" fill="#E3A753"/>
<path d="M29.0938 32.2188H31.2656C32.6302 32.1979 33.7031 31.8385 34.4844 31.1406C35.2656 30.4427 35.6562 29.5 35.6562 28.3125C35.6562 25.6458 34.3281 24.3125 31.6719 24.3125C30.4219 24.3125 29.4219 24.6719 28.6719 25.3906C27.9323 26.099 27.5625 27.0417 27.5625 28.2188H24.6719C24.6719 26.4167 25.3281 24.9219 26.6406 23.7344C27.9635 22.5365 29.6406 21.9375 31.6719 21.9375C33.8177 21.9375 35.5 22.5052 36.7188 23.6406C37.9375 24.776 38.5469 26.3542 38.5469 28.375C38.5469 29.3646 38.224 30.3229 37.5781 31.25C36.9427 32.1771 36.0729 32.8698 34.9688 33.3281C36.2188 33.724 37.1823 34.3802 37.8594 35.2969C38.5469 36.2135 38.8906 37.3333 38.8906 38.6562C38.8906 40.6979 38.224 42.3177 36.8906 43.5156C35.5573 44.7135 33.8229 45.3125 31.6875 45.3125C29.5521 45.3125 27.8125 44.7344 26.4688 43.5781C25.1354 42.4219 24.4688 40.8958 24.4688 39H27.375C27.375 40.1979 27.7656 41.1562 28.5469 41.875C29.3281 42.5938 30.375 42.9531 31.6875 42.9531C33.0833 42.9531 34.151 42.5885 34.8906 41.8594C35.6302 41.1302 36 40.0833 36 38.7188C36 37.3958 35.5938 36.3802 34.7812 35.6719C33.9688 34.9635 32.7969 34.599 31.2656 34.5781H29.0938V32.2188Z" fill="#F25287"/>
</svg>