<svg xmlns="http://www.w3.org/2000/svg" fill="none" viewBox="0 0 64 61.97">
<path d="M64 23.412L42.9673 21.9046L31.9989 0L20.9066 21.9044L0 23.412L14.0011 40.3223L9.99854 61.9707L31.9989 52.0062L53.9992 61.9689L49.9326 40.3204C49.9329 40.32 64 23.412 64 23.412Z" fill="#F4B459"/>
<path d="M53.9994 61.9707L49.9329 40.3202L63.9879 23.426V23.41L42.9673 21.9044L31.9989 0V52.006L53.9994 61.9707Z" fill="#E3A753"/>
<path d="M39.7969 45H24.8906V42.9219L32.7656 34.1719C33.9323 32.849 34.7344 31.776 35.1719 30.9531C35.6198 30.1198 35.8438 29.2604 35.8438 28.375C35.8438 27.1875 35.4844 26.2135 34.7656 25.4531C34.0469 24.6927 33.0885 24.3125 31.8906 24.3125C30.4531 24.3125 29.3333 24.724 28.5312 25.5469C27.7396 26.3594 27.3438 27.4948 27.3438 28.9531H24.4531C24.4531 26.8594 25.125 25.1667 26.4688 23.875C27.8229 22.5833 29.6302 21.9375 31.8906 21.9375C34.0052 21.9375 35.6771 22.4948 36.9062 23.6094C38.1354 24.7135 38.75 26.1875 38.75 28.0312C38.75 30.2708 37.3229 32.9375 34.4688 36.0312L28.375 42.6406H39.7969V45Z" fill="#28527A"/>
</svg>