<svg xmlns="http://www.w3.org/2000/svg" fill="none" viewBox="0 0 64 61.97">
<path d="M64 23.412L42.9673 21.9046L31.9989 0L20.9066 21.9044L0 23.412L14.0011 40.3223L9.99854 61.9707L31.9989 52.0062L53.9992 61.9689L49.9326 40.3204C49.9329 40.32 64 23.412 64 23.412Z" fill="#F4B459"/>
<path d="M53.9994 61.9707L49.9329 40.3202L63.9879 23.426V23.41L42.9673 21.9044L31.9989 0V52.006L53.9994 61.9707Z" fill="#E3A753"/>
<path d="M26.2188 33.5938L27.375 22.25H39.0312V24.9219H29.8281L29.1406 31.125C30.2552 30.4688 31.5208 30.1406 32.9375 30.1406C35.0104 30.1406 36.6562 30.8281 37.875 32.2031C39.0938 33.5677 39.7031 35.4167 39.7031 37.75C39.7031 40.0938 39.0677 41.9427 37.7969 43.2969C36.5365 44.6406 34.7708 45.3125 32.5 45.3125C30.4896 45.3125 28.849 44.7552 27.5781 43.6406C26.3073 42.526 25.5833 40.9844 25.4062 39.0156H28.1406C28.3177 40.3177 28.7812 41.3021 29.5312 41.9688C30.2812 42.625 31.2708 42.9531 32.5 42.9531C33.8438 42.9531 34.8958 42.4948 35.6562 41.5781C36.4271 40.6615 36.8125 39.3958 36.8125 37.7812C36.8125 36.2604 36.3958 35.0417 35.5625 34.125C34.7396 33.1979 33.6406 32.7344 32.2656 32.7344C31.0052 32.7344 30.0156 33.0104 29.2969 33.5625L28.5312 34.1875L26.2188 33.5938Z" fill="#BD2000"/>
</svg>