<svg xmlns="http://www.w3.org/2000/svg" fill="none" viewBox="0 0 42 46.33">
<g clip-path="url(#clip0)">
<path d="M23.348 24.6131C19.154 27.8362 15.659 28.8463 6.33872 27.4482C5.58218 27.3349 4.83675 27.2977 4.1051 27.3249C5.36301 33.5787 10.8871 38.2884 17.5114 38.2884C24.9059 38.2884 30.9295 32.4193 31.1782 25.0851C28.2949 23.6553 25.636 22.855 23.348 24.6132" fill="#5A3114"/>
<path d="M37.8819 31.5447C37.0754 33.0572 35.7934 34.0771 33.9191 34.6731C35.4248 29.7508 34.8661 24.6718 34.1074 21.2146C34.4121 21.2044 34.7717 21.2024 35.1575 21.229C36.0675 21.2877 37.3224 21.5011 38.1344 22.186C38.7273 22.6863 39.0233 23.4076 39.039 24.3914C39.0774 26.7844 38.9696 29.5059 37.882 31.5455L37.8819 31.5447ZM41.9928 24.3436C41.9765 23.3906 41.7918 22.5218 41.4403 21.7615C41.1107 21.0482 40.6359 20.4281 40.029 19.9186C38.8682 18.9442 37.2664 18.3912 35.2679 18.2751C34.4889 18.2299 33.7995 18.2628 33.3317 18.3033C33.0535 17.425 32.8495 16.9242 32.8495 16.9242H30.2068C31.5678 19.1665 32.3514 21.7983 32.3514 24.6132C32.3514 32.8092 25.7073 39.4535 17.5113 39.4535C9.31528 39.4535 2.67099 32.8092 2.67099 24.6132C2.67099 21.7983 3.45458 19.1665 4.81585 16.9242H2.01782C2.01782 16.9242 -4.9414 34.0222 6.98832 43.5638C6.98627 43.6039 6.98423 43.644 6.98423 43.6845V44.5814C6.98423 45.5425 7.77079 46.3288 8.73188 46.3288H25.9995C26.9606 46.3288 27.7469 45.5425 27.7469 44.5814V43.6845C27.7469 43.6804 27.7467 43.6742 27.7467 43.6701C29.8962 41.9809 31.4438 40.0496 32.5351 38.0145C34.4378 37.7153 36.0669 37.1392 37.3814 36.3002C38.7026 35.4568 39.7481 34.3247 40.4892 32.9348C41.8938 30.3015 42.0377 27.1141 41.9934 24.3437" fill="#231F20"/>
<path d="M19.2893 25.7187C19.2893 25.7187 19.3825 25.6438 19.545 25.4933C19.5853 25.455 19.6307 25.4135 19.6789 25.3652C19.7276 25.3184 19.7802 25.2665 19.8362 25.2096C19.9475 25.0951 20.0735 24.9634 20.2077 24.8102C20.3423 24.6574 20.4862 24.4852 20.6347 24.2931C20.7832 24.1011 20.934 23.8867 21.0882 23.6567C21.2383 23.423 21.3915 23.1724 21.5363 22.9013C21.5739 22.8342 21.6064 22.763 21.6428 22.6935C21.6612 22.6585 21.6786 22.6234 21.6964 22.5882C21.7148 22.5528 21.7302 22.516 21.7473 22.4796C21.7809 22.4068 21.815 22.3331 21.8494 22.259C21.8811 22.1836 21.9128 22.1073 21.9449 22.0304C21.9613 21.9918 21.9783 21.9541 21.9924 21.914C22.0067 21.8748 22.0218 21.8353 22.0367 21.7954C22.0511 21.7557 22.0666 21.7158 22.0817 21.6758C22.0961 21.6359 22.112 21.596 22.1247 21.5544C22.1517 21.4726 22.1789 21.3902 22.2061 21.3069C22.2204 21.2658 22.2323 21.2232 22.2444 21.1807C22.2566 21.1381 22.2687 21.0954 22.281 21.0527C22.2932 21.0099 22.3053 20.9672 22.3176 20.9242C22.3298 20.8815 22.339 20.8371 22.3501 20.7933C22.3712 20.706 22.3926 20.6176 22.4143 20.529C22.4327 20.4392 22.4495 20.3488 22.4671 20.2578C22.4753 20.2124 22.4855 20.1672 22.4939 20.1212C22.5 20.0752 22.5082 20.029 22.5147 19.9823C22.527 19.8893 22.544 19.7966 22.5556 19.7023C22.5659 19.6082 22.5763 19.5129 22.5865 19.4174C22.5988 19.3225 22.6029 19.2253 22.6088 19.1284C22.6129 19.0799 22.615 19.0313 22.619 18.9826C22.6211 18.9339 22.6272 18.8854 22.6272 18.8359C22.6291 18.7378 22.6313 18.639 22.6334 18.5396C22.6374 18.4406 22.6331 18.3404 22.6313 18.2401C22.6304 18.1898 22.6293 18.1397 22.6272 18.0892L22.6257 18.0137L22.6248 17.9759C22.6248 17.9636 22.6248 17.984 22.6246 17.9771L22.6239 17.9669L22.6227 17.9462C22.6166 17.8382 22.6125 17.7205 22.6023 17.6329L22.5961 17.5619C22.5943 17.5384 22.592 17.5148 22.5879 17.4897C22.5818 17.4402 22.5777 17.3907 22.5716 17.3408C22.5654 17.2911 22.5573 17.2424 22.5511 17.1931L22.5409 17.1191C22.5368 17.0945 22.5327 17.0704 22.5286 17.0456C22.4981 16.8495 22.4556 16.6566 22.4053 16.4669C22.3067 16.0867 22.1674 15.7228 21.9862 15.3773C21.8947 15.2047 21.7949 15.0355 21.6828 14.8702C21.6552 14.8289 21.6252 14.7882 21.5967 14.7469C21.5675 14.706 21.5366 14.6657 21.5069 14.6248L21.4137 14.5033L21.3165 14.3826C21.0516 14.0625 20.7489 13.7486 20.4215 13.4231C20.096 13.0952 19.7447 12.7562 19.4057 12.3682C19.2361 12.1745 19.0688 11.9694 18.913 11.7497C18.7569 11.5305 18.6097 11.2975 18.4825 11.0516C18.3551 10.8059 18.2452 10.5488 18.1575 10.2869C18.0706 10.0244 18.0058 9.75764 17.9608 9.49247C17.9162 9.2273 17.8937 8.96405 17.8853 8.70644C17.884 8.64202 17.8812 8.57761 17.8812 8.51379C17.8823 8.45018 17.8831 8.38698 17.8833 8.32357L17.8838 8.28616L17.8852 8.26528L17.8872 8.22355L17.8913 8.1405C17.8934 8.09019 17.8995 8.01801 17.9036 7.95256L17.9117 7.85316C17.9138 7.82044 17.9199 7.79016 17.922 7.75866C17.9302 7.69608 17.9342 7.63411 17.9457 7.57235C17.9559 7.51037 17.9662 7.44859 17.9752 7.38703C17.9874 7.32567 17.9989 7.26452 18.0109 7.20336C18.0371 7.08187 18.0647 6.96092 18.0979 6.84215C18.1142 6.78243 18.1316 6.72352 18.1498 6.66482L18.1768 6.57708L18.2069 6.49057C18.3642 6.0287 18.5779 5.6009 18.8227 5.22021C19.0671 4.83844 19.3403 4.50182 19.6187 4.20257C19.898 3.90359 20.1818 3.64058 20.4575 3.40167C21.0098 2.92491 21.5255 2.53854 21.9514 2.17541C22.1646 1.9944 22.3559 1.82014 22.5223 1.65048C22.6898 1.48133 22.827 1.31362 22.9428 1.15481C22.9718 1.11513 22.9972 1.07504 23.0238 1.03638C23.0479 0.996909 23.0725 0.958656 23.0944 0.920817C23.115 0.882366 23.1381 0.845968 23.1565 0.809152C23.1749 0.772132 23.1946 0.736942 23.2103 0.701762C23.2766 0.561659 23.3208 0.435237 23.3517 0.330517C23.3598 0.303928 23.366 0.279385 23.3731 0.256069C23.3793 0.232548 23.3833 0.210264 23.3895 0.190015C23.3956 0.169358 23.3997 0.150538 23.4038 0.133153C23.4079 0.11679 23.4099 0.100218 23.412 0.0861052C23.4222 0.0292458 23.4284 0 23.4284 0C23.4284 0 23.4324 0.0294592 23.4406 0.0869323C23.4425 0.101249 23.4447 0.117808 23.4468 0.135602C23.448 0.15401 23.4509 0.173235 23.4509 0.194915C23.4524 0.216391 23.4549 0.239919 23.457 0.264667C23.4576 0.289824 23.4582 0.316413 23.4585 0.344842C23.4606 0.402111 23.457 0.465727 23.4544 0.536699C23.4503 0.571878 23.4483 0.608898 23.4442 0.64735C23.4401 0.686006 23.434 0.725466 23.4278 0.767395C23.401 0.933473 23.3534 1.12456 23.2742 1.32884C23.12 1.7404 22.8394 2.20092 22.4744 2.67035C22.111 3.14225 21.6678 3.62874 21.2273 4.15799C21.0073 4.42261 20.7893 4.69915 20.5863 4.99028C20.3836 5.28143 20.1981 5.58826 20.0425 5.91105C19.9656 6.07284 19.8948 6.23765 19.8344 6.40702C19.7747 6.57658 19.7229 6.74985 19.6816 6.92679L19.6652 6.99327L19.6509 7.06036C19.6428 7.10495 19.6325 7.14951 19.6258 7.19512C19.6094 7.28512 19.5972 7.37677 19.5855 7.46842C19.5814 7.51464 19.5753 7.56087 19.5712 7.6073C19.5671 7.65393 19.565 7.70056 19.5609 7.7474C19.5569 7.79403 19.5569 7.84146 19.5548 7.88871C19.5539 7.91203 19.5528 7.93657 19.5528 7.95887V8.02494C19.5528 8.06952 19.5515 8.10797 19.5534 8.16831L19.5552 8.25154L19.5561 8.29327L19.5568 8.31415C19.5568 8.32029 19.5571 8.2937 19.5574 8.31006L19.558 8.31824C19.56 8.3661 19.5641 8.41436 19.5662 8.46242C19.5703 8.51028 19.5743 8.55775 19.5784 8.60561C19.5968 8.79521 19.6273 8.9817 19.6682 9.163C19.7091 9.34421 19.7629 9.5204 19.8298 9.69115C19.8959 9.86213 19.975 10.028 20.0682 10.1904C20.1615 10.3524 20.266 10.5123 20.3864 10.6695C20.5062 10.8264 20.6377 10.9831 20.7801 11.1401C21.0655 11.4529 21.3918 11.77 21.7319 12.1085C22.0707 12.4491 22.4236 12.8139 22.7482 13.2246L22.8689 13.3803L22.9867 13.54C23.0246 13.5946 23.0628 13.6488 23.1 13.704C23.1364 13.7601 23.1739 13.8149 23.2093 13.8717C23.3524 14.0977 23.4847 14.3328 23.5992 14.5758C23.7139 14.8188 23.8143 15.0674 23.8973 15.3193C23.9796 15.5715 24.045 15.8259 24.0968 16.0791C24.1473 16.3324 24.1847 16.5848 24.2074 16.834C24.2135 16.8966 24.2197 16.9586 24.2238 17.0203C24.2279 17.0823 24.2319 17.1443 24.234 17.2054C24.236 17.2668 24.2381 17.3283 24.2401 17.3895C24.2414 17.4196 24.2417 17.4513 24.242 17.4828L24.2429 17.5775C24.2449 17.7106 24.2411 17.8126 24.2368 17.9235L24.2355 17.9763L24.2335 18.0205L24.2273 18.1084C24.2233 18.1669 24.2192 18.2254 24.2171 18.2837C24.2069 18.5167 24.1738 18.747 24.1482 18.974C24.1421 19.0308 24.1318 19.0873 24.1224 19.1437C24.1122 19.2 24.104 19.256 24.0946 19.3117C24.0742 19.4233 24.0578 19.5343 24.0316 19.6436C24.0075 19.7528 23.9831 19.8615 23.9594 19.9694C23.9533 19.9964 23.9471 20.023 23.939 20.0496L23.9167 20.1291C23.9023 20.1821 23.8874 20.2349 23.8729 20.2875C23.8586 20.34 23.8436 20.3922 23.8291 20.4441C23.8128 20.4961 23.7958 20.5472 23.7796 20.5981C23.7461 20.7004 23.7119 20.8014 23.678 20.9012C23.6399 20.9998 23.6019 21.0975 23.5643 21.1945C23.5438 21.243 23.5281 21.2916 23.5064 21.3385C23.4853 21.3855 23.4644 21.4324 23.4436 21.4792C23.2814 21.8537 23.0921 22.2 22.8967 22.5204C22.8466 22.5999 22.7971 22.6785 22.7482 22.756C22.6961 22.8315 22.6446 22.906 22.5934 22.9795C22.5674 23.0161 22.5433 23.0534 22.5163 23.0885C22.4897 23.1237 22.4633 23.1587 22.437 23.1935C22.4104 23.228 22.3844 23.2628 22.3582 23.2968C22.3322 23.3311 22.3065 23.3649 22.2789 23.3974C22.2251 23.4628 22.1717 23.5273 22.1189 23.5909C22.0931 23.623 22.0659 23.6535 22.0385 23.6837C22.0115 23.7138 21.9843 23.7439 21.9575 23.7735C21.8526 23.894 21.7419 24.0032 21.6377 24.1107C21.5289 24.2144 21.4272 24.3166 21.3211 24.4077C21.2686 24.454 21.2187 24.5004 21.1671 24.5436C21.1154 24.5861 21.0647 24.6276 21.0148 24.6689C20.9659 24.7102 20.9151 24.7483 20.8667 24.7862C20.8178 24.8234 20.7712 24.8614 20.7233 24.8958C20.6288 24.9655 20.5374 25.0303 20.4489 25.089C20.3618 25.1492 20.2765 25.2023 20.1976 25.2531C20.1581 25.2784 20.1178 25.3007 20.0802 25.3234C20.0423 25.3459 20.0061 25.3678 19.9701 25.3877C19.828 25.4695 19.7036 25.5321 19.6024 25.5814C19.5012 25.6302 19.422 25.6642 19.3681 25.6863C19.3145 25.7084 19.2865 25.718 19.2865 25.718" fill="#845333"/>
<path d="M17.1204 26.3245C17.1204 26.3245 17.1367 26.3122 17.1664 26.2879C17.1964 26.2634 17.24 26.2259 17.2969 26.1775C17.3531 26.1286 17.4216 26.0676 17.501 25.9948C17.5403 25.958 17.5826 25.9191 17.6268 25.8758C17.6712 25.8336 17.7182 25.7884 17.7667 25.7391C17.9616 25.5444 18.1899 25.3016 18.4323 25.01C18.675 24.7188 18.931 24.3782 19.1788 23.9902C19.2392 23.8922 19.3046 23.795 19.3637 23.6912C19.394 23.6398 19.4243 23.5881 19.4551 23.5359C19.4854 23.4833 19.5132 23.4288 19.5431 23.375C19.5723 23.3208 19.6016 23.2662 19.6312 23.2109C19.6595 23.1551 19.6875 23.0989 19.7159 23.0424C19.7748 22.9301 19.8259 22.8119 19.8799 22.6936C20.0907 22.2182 20.2758 21.7033 20.4116 21.157C20.5481 20.6113 20.6392 20.0363 20.6814 19.4472C20.6855 19.3734 20.6896 19.2996 20.6937 19.2256L20.6998 19.1144L20.7039 19.0589C20.7048 19.0405 20.7041 19.0217 20.7048 19.0029C20.7064 18.8562 20.7089 18.7088 20.7089 18.5613C20.7071 18.4826 20.7048 18.4038 20.7028 18.3251C20.6987 18.2537 20.6966 18.1819 20.6925 18.1105L20.6762 17.8897L20.6531 17.6706C20.6195 17.3792 20.5666 17.0929 20.4962 16.8145C20.4618 16.6748 20.4189 16.5385 20.3755 16.4029C20.3287 16.2688 20.2798 16.1356 20.2238 16.006C20.1141 15.7457 19.9824 15.497 19.836 15.2576C19.6886 15.0186 19.5259 14.7895 19.3517 14.569C19.0045 14.1268 18.6152 13.7174 18.2475 13.307C18.0642 13.1011 17.8835 12.8976 17.7174 12.6895C17.5515 12.4815 17.3957 12.2731 17.2604 12.0615C17.1256 11.85 17.0063 11.6389 16.9103 11.4303C16.8142 11.2214 16.7362 11.0174 16.6797 10.822C16.6233 10.6265 16.581 10.4416 16.5548 10.2692C16.5304 10.0968 16.5122 9.93911 16.5079 9.79624C16.5066 9.76045 16.5038 9.72589 16.5038 9.69235C16.5035 9.6586 16.5033 9.62587 16.503 9.59417C16.5017 9.53117 16.5041 9.47187 16.5071 9.41706C16.5092 9.30722 16.5194 9.21415 16.5255 9.13917C16.5316 9.06411 16.5419 9.00685 16.546 8.9684C16.5501 8.92995 16.5541 8.90988 16.5541 8.90988C16.5541 8.90988 16.5664 8.98883 16.591 9.13665C16.6177 9.2835 16.658 9.49788 16.7311 9.76113C16.7413 9.79386 16.7495 9.8278 16.7601 9.86175C16.7703 9.89591 16.7822 9.93068 16.7937 9.96668C16.7998 9.98508 16.8039 10.0025 16.81 10.0205C16.8161 10.0389 16.8223 10.0567 16.8305 10.0751C16.8427 10.1119 16.8564 10.1495 16.8708 10.1874C16.9297 10.3385 16.9974 10.4991 17.0826 10.663C17.2503 10.9923 17.482 11.3352 17.7804 11.6745C17.8551 11.7589 17.933 11.8446 18.0148 11.9301C18.0976 12.015 18.1825 12.101 18.2726 12.1864C18.451 12.3582 18.6417 12.5336 18.8438 12.7132C19.2456 13.0742 19.6872 13.4622 20.1096 13.9278C20.3209 14.1597 20.5246 14.413 20.7132 14.6854C20.8065 14.8223 20.8967 14.9638 20.9811 15.11C21.0643 15.2568 21.1439 15.4076 21.2157 15.5629C21.2895 15.7173 21.3523 15.8773 21.4132 16.0383C21.4709 16.2003 21.5249 16.3644 21.5689 16.5308C21.6601 16.8631 21.7225 17.2021 21.7632 17.5405L21.7883 17.7946L21.8047 18.0481C21.8088 18.1347 21.8108 18.2216 21.8149 18.3082C21.8155 18.3875 21.8162 18.4667 21.8165 18.546V18.5837L21.8155 18.6147L21.8137 18.6769L21.8096 18.8013C21.8055 18.8841 21.8035 18.967 21.8014 19.0494C21.8002 19.0703 21.8002 19.0907 21.7994 19.1114L21.7932 19.1734L21.783 19.2967C21.7748 19.3789 21.7687 19.4611 21.7613 19.5429C21.6928 20.1977 21.5568 20.8363 21.362 21.4326C21.1679 22.0295 20.9131 22.5826 20.6252 23.0758C20.552 23.1988 20.4818 23.3204 20.4039 23.4354C20.366 23.4931 20.3286 23.5508 20.2914 23.6078C20.2535 23.6641 20.2124 23.7181 20.1738 23.7723C20.1341 23.8265 20.096 23.8805 20.0564 23.9326C20.0159 23.9844 19.9758 24.0355 19.9359 24.086C19.8578 24.1883 19.7751 24.2838 19.6943 24.3771C19.6738 24.4007 19.6542 24.4238 19.6341 24.4469C19.6133 24.4692 19.5928 24.4915 19.5721 24.5138C19.5312 24.558 19.491 24.6017 19.4509 24.6451C19.3703 24.7312 19.2881 24.8116 19.2087 24.8905C19.1273 24.9674 19.0477 25.0417 18.9695 25.1129C18.8898 25.1823 18.8137 25.251 18.7363 25.3133C18.43 25.5666 18.147 25.7641 17.9067 25.9135C17.7871 25.989 17.6775 26.0517 17.5812 26.1039C17.4855 26.1569 17.4018 26.1984 17.3339 26.2311C17.266 26.2638 17.2126 26.2863 17.177 26.3017C17.141 26.316 17.1224 26.3238 17.1224 26.3238" fill="#845333"/>
</g>
<defs>
<clipPath id="clip0">
<rect width="42" height="46.3288" fill="white"/>
</clipPath>
</defs>
</svg>