<svg width="26" height="26" viewBox="0 0 26 26" fill="none" xmlns="http://www.w3.org/2000/svg">
<path d="M0 13.0003C0 5.82005 5.82036 0.000151634 12.9998 0.000151634C20.1796 0.000151634 26 5.82005 26 13.0003C26 20.1796 20.1796 25.9999 12.9998 25.9999C5.82036 25.9999 0 20.1796 0 13.0003Z" fill="#915821"/>
<path d="M20.6709 7.929L18.071 5.32909C17.5088 4.76691 16.5974 4.76702 16.0354 5.32909L12.0198 9.3447C11.4577 9.90688 11.4576 10.8182 12.0197 11.3804L14.6197 13.9803C15.1818 14.5424 16.0932 14.5424 16.6552 13.9802L20.6709 9.96458C21.2329 9.40256 21.233 8.49112 20.6709 7.929ZM16.3805 12.3368C16.051 12.6663 15.5167 12.6664 15.1872 12.3368L13.6632 10.8128C13.3336 10.4833 13.3337 9.94901 13.6632 9.61945L16.3101 6.97254C16.6396 6.64309 17.1738 6.64303 17.5034 6.97254L19.0275 8.49667C19.357 8.82613 19.3569 9.36037 19.0275 9.68988L16.3805 12.3368Z" fill="white"/>
<path d="M13.9803 14.6196L11.3804 12.0197C10.8183 11.4576 9.90688 11.4576 9.34481 12.0197L5.32914 16.0354C4.76707 16.5975 4.76702 17.5089 5.32914 18.071L7.9291 20.6709C8.49117 21.233 9.40261 21.2329 9.96463 20.6709L13.9803 16.6551C14.5423 16.0931 14.5424 15.1817 13.9803 14.6196ZM9.68988 19.0274C9.36037 19.3569 8.82618 19.357 8.49662 19.0275L6.97254 17.5034C6.64298 17.1739 6.64303 16.6396 6.97254 16.3101L9.6195 13.6632C9.94896 13.3337 10.4832 13.3336 10.8128 13.6632L12.3368 15.1872C12.6664 15.5168 12.6663 16.051 12.3368 16.3805L9.68988 19.0274Z" fill="white"/>
<path d="M16.0827 10.0442L15.9559 9.91731C15.5502 9.51155 14.89 9.51155 14.4843 9.91731L9.91736 14.4843C9.51166 14.89 9.51166 15.5501 9.91736 15.9558L10.0442 16.0827C10.4499 16.4883 11.11 16.4883 11.5158 16.0827L16.0827 11.5157C16.4884 11.11 16.4884 10.4498 16.0827 10.0442Z" fill="#9E8466"/>
<path d="M11.2874 15.8543C11.0072 16.1346 10.5527 16.1346 10.2725 15.8544L10.1456 15.7275C9.86538 15.4473 9.86538 14.9928 10.1456 14.7126L14.7126 10.1456C14.9929 9.86533 15.4473 9.86538 15.7276 10.1457L15.8544 10.2725C16.1346 10.5528 16.1347 11.0072 15.8544 11.2874L11.2874 15.8543Z" fill="white"/>
</svg>
